<?xml version="1.0" encoding="iso-8859-1"?>
<!-- Generator: Adobe Illustrator 19.0.0, SVG Export Plug-In . SVG Version: 6.00 Build 0)  -->
<svg version="1.1" id="Layer_1" xmlns="http://www.w3.org/2000/svg" xmlns:xlink="http://www.w3.org/1999/xlink" x="0px" y="0px"
	 viewBox="0 0 406.481 406.481" style="enable-background:new 0 0 406.481 406.481;" xml:space="preserve">
<g>
	<path style="fill:#B3B3B3;" d="M302.269,175V99.028c0-26.454-10.296-51.315-29-70.019C254.574,10.306,229.704,0,203.241,0
		c-54.602,0-99.028,44.426-99.028,99.028V175h35.185V99.028c0-35.204,28.639-63.843,63.843-63.843
		c17.065,0,33.093,6.639,45.139,18.704c12.065,12.056,18.704,28.083,18.704,45.139V175H302.269z"/>
	<rect x="78.241" y="175" style="fill:#1EA6C6;" width="250" height="231.481"/>
	<polygon style="fill:#FFFFFF;" points="252.545,252.044 241.937,241.437 203.241,280.134 164.545,241.437 153.937,252.044 
		192.634,290.741 153.937,329.437 164.545,340.044 203.241,301.348 241.937,340.044 252.545,329.437 213.848,290.741 	"/>
</g>
<g>
</g>
<g>
</g>
<g>
</g>
<g>
</g>
<g>
</g>
<g>
</g>
<g>
</g>
<g>
</g>
<g>
</g>
<g>
</g>
<g>
</g>
<g>
</g>
<g>
</g>
<g>
</g>
<g>
</g>
</svg>
